# xmcd
#
# Track frame offsets:
#	150
#	13241
#	24966
#	38995
#	50635
#	61160
#	74139
#	83700
#	98807
#	112797
#	131970
#	144855
#	162002
#	173356
#	184871
#	196345
#	210642
#	223338
#	238001
#	252518
#	276939
#
# Disc length: 4440 seconds
#
# Revision: 0
# Processed by: cddbd v1.5.2PL0 Copyright (c) Steve Scherf et al.
# Submitted via: dBpowerAMP V4.0
#
DISCID=32115615
DTITLE=Bobbie Gentry - The Very Best Of
DYEAR=1900
DGENRE=Country
TTITLE0=I'll never fall in love again
TTITLE1=something in the way he moves
TTITLE2=raindrops keep falling on my head
TTITLE3=All I have to do is dream (with Glen Campbell)
TTITLE4=Walk right back (with Glen Campbell)
TTITLE5=Seasons come, seasons go
TTITLE6=Son of a Preacher man
TTITLE7=You've made me so very happy
TTITLE8=Mississippi Delta
TTITLE9=Ode to Billie Jo
TTITLE10=Tobacco Road
TTITLE11=The Fool on the Hill
TTITLE12=Eleanor Rigby
TTITLE13=Here, there and everywhere
TTITLE14=Where's the playground, Johnny
TTITLE15=Gentle on my mind
TTITLE16=in the Ghetto
TTITLE17=Little Green Apples (with Glen Campbell)
TTITLE18=My Elusive Dreams (with Glen Campbell)
TTITLE19=Mornin' Glory (with Glen Campbell)
TTITLE20=DATA
EXTD=
EXTT0=
EXTT1=
EXTT2=
EXTT3=
EXTT4=
EXTT5=
EXTT6=
EXTT7=
EXTT8=
EXTT9=
EXTT10=
EXTT11=
EXTT12=
EXTT13=
EXTT14=
EXTT15=
EXTT16=
EXTT17=
EXTT18=
EXTT19=
EXTT20=
PLAYORDER=
